<svg width="17" height="17" viewBox="0 0 17 17" fill="none" xmlns="http://www.w3.org/2000/svg">
<g id="Icon" clip-path="url(#clip0_134_641)">
<path id="Vector" d="M12.7491 7.09738V8.43072C12.7491 9.66839 12.2574 10.8554 11.3823 11.7305C10.5071 12.6057 9.32012 13.0974 8.08244 13.0974M8.08244 13.0974C6.84476 13.0974 5.65778 12.6057 4.78261 11.7305C3.90744 10.8554 3.41577 9.66839 3.41577 8.43072V7.09738M8.08244 13.0974V15.764M5.41577 15.764H10.7491M8.08244 1.09738C7.55201 1.09738 7.0433 1.3081 6.66822 1.68317C6.29315 2.05824 6.08244 2.56695 6.08244 3.09738V8.43071C6.08244 8.96115 6.29315 9.46986 6.66822 9.84493C7.0433 10.22 7.55201 10.4307 8.08244 10.4307C8.61287 10.4307 9.12158 10.22 9.49665 9.84493C9.87172 9.46986 10.0824 8.96115 10.0824 8.43071V3.09738C10.0824 2.56695 9.87172 2.05824 9.49665 1.68317C9.12158 1.3081 8.61287 1.09738 8.08244 1.09738Z" stroke="#0E0F0F" stroke-linecap="round" stroke-linejoin="round"/>
</g>
<defs>
<clipPath id="clip0_134_641">
<rect width="16" height="16" fill="white" transform="translate(0.0825195 0.430725)"/>
</clipPath>
</defs>
</svg>
